<?xml version="1.0" encoding="utf-8"?>
<!-- Generator: Adobe Illustrator 18.0.0, SVG Export Plug-In . SVG Version: 6.00 Build 0)  -->
<!DOCTYPE svg PUBLIC "-//W3C//DTD SVG 1.1//EN" "http://www.w3.org/Graphics/SVG/1.1/DTD/svg11.dtd">
<svg version="1.1" id="レイヤー_1" xmlns="http://www.w3.org/2000/svg" xmlns:xlink="http://www.w3.org/1999/xlink" x="0px"
	 y="0px" viewBox="0 0 400 200" enable-background="new 0 0 400 200" xml:space="preserve">
<g>
	<path fill="#79CECE" d="M314.8,172.7c0,10.5-8.6,19.1-19.1,19.1H104.3c-10.5,0-19.1-8.6-19.1-19.1V27.3c0-10.5,8.6-19.1,19.1-19.1
		h191.3c10.5,0,19.1,8.6,19.1,19.1V172.7z M104.3,23.5c-2,0-3.8,1.8-3.8,3.8v145.4c0,2,1.8,3.8,3.8,3.8h191.3c2,0,3.8-1.8,3.8-3.8
		V27.3c0-2-1.8-3.8-3.8-3.8H104.3z M138.8,84.7c-12.7,0-23-10.3-23-23s10.3-23,23-23s23,10.3,23,23S151.5,84.7,138.8,84.7z
		 M284.2,161.2H115.8v-23l38.3-38.3l19.1,19.1l61.2-61.2l49.7,49.7V161.2z"/>
</g>
</svg>
