<?xml version="1.0" encoding="utf-8"?>
<!-- Generator: Adobe Illustrator 18.0.0, SVG Export Plug-In . SVG Version: 6.00 Build 0)  -->
<!DOCTYPE svg PUBLIC "-//W3C//DTD SVG 1.1//EN" "http://www.w3.org/Graphics/SVG/1.1/DTD/svg11.dtd">
<svg version="1.1" id="レイヤー_1" xmlns="http://www.w3.org/2000/svg" xmlns:xlink="http://www.w3.org/1999/xlink" x="0px"
	 y="0px" viewBox="0 0 400 120" enable-background="new 0 0 400 120" xml:space="preserve">
<g>
	<g>
		<path fill="#AFE2E2" d="M89,35.3c3.3,1.6,8.5,3.4,11,6.2c-1.2-3.6-3.3-7.2-5.8-10.1c-8.5-9.9-24.3-15.2-36.9-17.1
			c-11.2-1.7-24.6-1.2-34.6,4.5c-0.5,0.3-9.1,6.1-8.9,6.3c0,0,4.1,4.3,4.1,4.3s9.6-8.6,17-8.2c6.2,0.4,9,3.9,9,3.9v67.7h-0.1
			l6.5,16.9l6.5-16.9V26.6c0-0.8,13,1.7,13.9,1.9C77.1,30.1,83.1,32.6,89,35.3z M50.5,99.5c-1,0-1.8-0.8-1.8-1.8
			c0-1,0.8-1.8,1.8-1.8c1,0,1.8,0.8,1.8,1.8C52.3,98.7,51.5,99.5,50.5,99.5z M50.5,26.2c-2,0-3.6-1.6-3.6-3.6c0-2,1.6-3.6,3.6-3.6
			c2,0,3.6,1.6,3.6,3.6C54.1,24.6,52.5,26.2,50.5,26.2z"/>
		<path fill="#AFE2E2" d="M100,42.6c0,0,0.9,4.3-0.4,7.9C99,52.3,93.1,62.1,80.9,66c-12,3.9-20.6,4.3-20.6,4.3s8.4,6,24.2,0.3
			c17.3-6.2,19-16.7,19-21C103.4,45.5,100,42.6,100,42.6z"/>
	</g>
	<g>
		<path fill="#E4F5F5" d="M164.1,20.4v81.1H143V20.4H164.1z"/>
		<path fill="#E4F5F5" d="M213.3,56.3h-17.9v-3.6c0-3.1-0.2-5-0.5-5.8s-1.2-1.2-2.6-1.2c-1.1,0-2,0.4-2.6,1.1
			c-0.6,0.8-0.9,1.9-0.9,3.4c0,2,0.1,3.5,0.4,4.5c0.3,1,1.1,2,2.6,3.1c1.4,1.1,4.3,2.8,8.7,5c5.9,2.9,9.7,5.6,11.6,8.1
			c1.8,2.5,2.8,6.2,2.8,11.1c0,5.4-0.7,9.5-2.1,12.3c-1.4,2.8-3.7,4.9-7,6.4c-3.3,1.5-7.3,2.2-11.9,2.2c-5.1,0-9.5-0.8-13.2-2.4
			c-3.7-1.6-6.2-3.8-7.5-6.5c-1.4-2.7-2.1-6.9-2.1-12.4v-3.2h17.9v4.2c0,3.6,0.2,5.9,0.7,7c0.5,1.1,1.3,1.6,2.7,1.6
			c1.4,0,2.4-0.4,3-1.1c0.6-0.7,0.9-2.2,0.9-4.5c0-3.2-0.4-5.2-1.1-6c-0.8-0.8-4.7-3.2-11.8-7.1c-5.9-3.3-9.6-6.4-10.9-9.1
			s-2-6-2-9.7c0-5.3,0.7-9.2,2.1-11.8c1.4-2.5,3.8-4.5,7.1-5.8c3.4-1.4,7.3-2.1,11.7-2.1c4.4,0,8.2,0.6,11.2,1.7
			c3.1,1.1,5.5,2.6,7.1,4.4c1.7,1.8,2.7,3.5,3,5.1c0.4,1.6,0.5,4,0.5,7.4V56.3z"/>
		<path fill="#E4F5F5" d="M240.8,35.1l-0.4,5.9c1.8-2.4,3.8-4.1,6-5.3c2.2-1.2,4.5-1.8,7.1-1.8c3.1,0,5.9,0.8,8.1,2.5
			c2.3,1.7,3.7,3.6,4.3,5.8c0.6,2.2,0.9,5.9,0.9,11.2v28c0,6-0.4,10.3-1.1,12.9c-0.7,2.6-2.2,4.6-4.4,6.1c-2.2,1.5-4.9,2.3-8,2.3
			c-2.5,0-4.8-0.6-7-1.8c-2.1-1.2-4.1-2.9-5.9-5.2V111h-20.2v-76H240.8z M246.6,54.4c0-4.1-0.2-6.6-0.5-7.5
			c-0.3-0.9-1.1-1.3-2.5-1.3c-1.3,0-2.2,0.5-2.6,1.5s-0.6,3.4-0.6,7.3V82c0,4,0.2,6.5,0.6,7.5c0.4,1,1.3,1.5,2.6,1.5
			c1.3,0,2.1-0.5,2.4-1.4c0.3-0.9,0.5-3.1,0.5-6.7V54.4z"/>
		<path fill="#E4F5F5" d="M294.4,20.4V31h-20.8V20.4H294.4z M294.4,35.1v66.5h-20.8V35.1H294.4z"/>
		<path fill="#E4F5F5" d="M346.4,60.2h-19.1v-7.7c0-2.7-0.2-4.5-0.7-5.4c-0.4-1-1.2-1.4-2.4-1.4c-1.2,0-2,0.4-2.4,1.3
			c-0.4,0.8-0.6,2.7-0.6,5.6v31.4c0,2.4,0.3,4.2,0.9,5.3c0.6,1.2,1.5,1.8,2.7,1.8c1.4,0,2.3-0.6,2.8-1.9c0.5-1.2,0.7-3.6,0.7-7v-7.9
			h18c0,5.3-0.2,9.3-0.6,12c-0.4,2.7-1.5,5.4-3.4,8.2c-1.9,2.8-4.4,4.9-7.4,6.3c-3,1.4-6.8,2.1-11.3,2.1c-5.7,0-10.2-1-13.6-2.9
			c-3.3-2-5.7-4.7-7.1-8.2c-1.4-3.5-2.1-8.5-2.1-15V57.7c0-5.6,0.6-9.9,1.7-12.8c1.1-2.9,3.6-5.4,7.3-7.7c3.7-2.3,8.2-3.4,13.5-3.4
			c5.3,0,9.8,1.1,13.5,3.4c3.7,2.2,6.2,5.1,7.5,8.5C345.7,49.1,346.4,53.9,346.4,60.2z"/>
		<path fill="#E4F5F5" d="M396,35.1l-8.2,26.5l10.7,40H379l-6.3-29l0,29h-20.2V20.4h20.2l0,34.1l6.3-19.4H396z"/>
	</g>
	<path fill="#AFE2E2" d="M101.5,116.3H14.2c-7,0-12.6-5.7-12.6-12.6V16.3c0-7,5.7-12.6,12.6-12.6h87.4c7,0,12.6,5.7,12.6,12.6v87.4
		C114.2,110.6,108.5,116.3,101.5,116.3z M14.2,6.5c-5.4,0-9.8,4.4-9.8,9.8v87.4c0,5.4,4.4,9.8,9.8,9.8h87.4c5.4,0,9.8-4.4,9.8-9.8
		V16.3c0-5.4-4.4-9.8-9.8-9.8H14.2z"/>
</g>
</svg>
